G04 EAGLE Gerber RS-274X export*
G75*
%MOMM*%
%FSLAX34Y34*%
%LPD*%
%INTop Silkscreen*%
%IPPOS*%
%AMOC8*
5,1,8,0,0,1.08239X$1,22.5*%
G01*
%ADD10C,0.000000*%
%ADD11C,0.152400*%
%ADD12C,0.127000*%
%ADD13C,0.101600*%


D10*
X64000Y17000D02*
X64000Y27160D01*
X64000Y22644D02*
X69644Y22644D01*
X69644Y27160D02*
X69644Y17000D01*
X72884Y17000D02*
X76271Y27160D01*
X79658Y17000D01*
X78811Y19540D02*
X73731Y19540D01*
X82672Y20387D02*
X82672Y27160D01*
X82390Y17564D02*
X82390Y17000D01*
X82390Y17564D02*
X82954Y17564D01*
X82954Y17000D01*
X82390Y17000D01*
X86329Y20387D02*
X86329Y27160D01*
X86047Y17564D02*
X86047Y17000D01*
X86047Y17564D02*
X86612Y17564D01*
X86612Y17000D01*
X86047Y17000D01*
X89987Y20387D02*
X89987Y27160D01*
X89705Y17564D02*
X89705Y17000D01*
X89705Y17564D02*
X90269Y17564D01*
X90269Y17000D01*
X89705Y17000D01*
X93644Y20387D02*
X93644Y27160D01*
X93362Y17564D02*
X93362Y17000D01*
X93362Y17564D02*
X93927Y17564D01*
X93927Y17000D01*
X93362Y17000D01*
X97302Y20387D02*
X97302Y27160D01*
X97020Y17564D02*
X97020Y17000D01*
X97020Y17564D02*
X97584Y17564D01*
X97584Y17000D01*
X97020Y17000D01*
D11*
X43950Y139200D02*
X31250Y139200D01*
X43950Y139200D02*
X50300Y132850D01*
X50300Y120150D01*
X43950Y113800D01*
X24900Y120150D02*
X24900Y132850D01*
X31250Y139200D01*
X24900Y120150D02*
X31250Y113800D01*
X43950Y113800D01*
X123450Y139200D02*
X136150Y139200D01*
X142500Y132850D01*
X142500Y120150D01*
X136150Y113800D01*
X117100Y120150D02*
X117100Y132850D01*
X123450Y139200D01*
X117100Y120150D02*
X123450Y113800D01*
X136150Y113800D01*
X44350Y44200D02*
X31650Y44200D01*
X44350Y44200D02*
X50700Y37850D01*
X50700Y25150D01*
X44350Y18800D01*
X25300Y25150D02*
X25300Y37850D01*
X31650Y44200D01*
X25300Y25150D02*
X31650Y18800D01*
X44350Y18800D01*
X123250Y44000D02*
X135950Y44000D01*
X142300Y37650D01*
X142300Y24950D01*
X135950Y18600D01*
X116900Y24950D02*
X116900Y37650D01*
X123250Y44000D01*
X116900Y24950D02*
X123250Y18600D01*
X135950Y18600D01*
D12*
X51000Y149000D02*
X13000Y149000D01*
X51000Y149000D02*
X69000Y149000D01*
X107000Y149000D02*
X145000Y149000D01*
X151000Y143000D02*
X151000Y137000D01*
X151000Y17000D01*
X151000Y11000D01*
X145000Y5000D02*
X107000Y5000D01*
X89000Y5000D01*
X69000Y5000D01*
X51000Y5000D01*
X13000Y5000D01*
X7000Y11000D02*
X7000Y17000D01*
X7000Y137000D01*
X7000Y143000D01*
X7002Y143152D01*
X7008Y143304D01*
X7017Y143456D01*
X7031Y143607D01*
X7048Y143758D01*
X7069Y143909D01*
X7094Y144059D01*
X7123Y144208D01*
X7155Y144356D01*
X7192Y144504D01*
X7231Y144651D01*
X7275Y144796D01*
X7323Y144941D01*
X7373Y145084D01*
X7428Y145226D01*
X7486Y145366D01*
X7548Y145505D01*
X7613Y145642D01*
X7682Y145778D01*
X7754Y145912D01*
X7829Y146044D01*
X7908Y146174D01*
X7990Y146302D01*
X8075Y146428D01*
X8164Y146551D01*
X8255Y146673D01*
X8350Y146792D01*
X8447Y146908D01*
X8548Y147022D01*
X8651Y147134D01*
X8757Y147243D01*
X8866Y147349D01*
X8978Y147452D01*
X9092Y147553D01*
X9208Y147650D01*
X9327Y147745D01*
X9449Y147836D01*
X9572Y147925D01*
X9698Y148010D01*
X9826Y148092D01*
X9956Y148171D01*
X10088Y148246D01*
X10222Y148318D01*
X10358Y148387D01*
X10495Y148452D01*
X10634Y148514D01*
X10774Y148572D01*
X10916Y148627D01*
X11059Y148677D01*
X11204Y148725D01*
X11349Y148769D01*
X11496Y148808D01*
X11644Y148845D01*
X11792Y148877D01*
X11941Y148906D01*
X12091Y148931D01*
X12242Y148952D01*
X12393Y148969D01*
X12544Y148983D01*
X12696Y148992D01*
X12848Y148998D01*
X13000Y149000D01*
X145000Y149000D02*
X145152Y148998D01*
X145304Y148992D01*
X145456Y148983D01*
X145607Y148969D01*
X145758Y148952D01*
X145909Y148931D01*
X146059Y148906D01*
X146208Y148877D01*
X146356Y148845D01*
X146504Y148808D01*
X146651Y148769D01*
X146796Y148725D01*
X146941Y148677D01*
X147084Y148627D01*
X147226Y148572D01*
X147366Y148514D01*
X147505Y148452D01*
X147642Y148387D01*
X147778Y148318D01*
X147912Y148246D01*
X148044Y148171D01*
X148174Y148092D01*
X148302Y148010D01*
X148428Y147925D01*
X148551Y147836D01*
X148673Y147745D01*
X148792Y147650D01*
X148908Y147553D01*
X149022Y147452D01*
X149134Y147349D01*
X149243Y147243D01*
X149349Y147134D01*
X149452Y147022D01*
X149553Y146908D01*
X149650Y146792D01*
X149745Y146673D01*
X149836Y146551D01*
X149925Y146428D01*
X150010Y146302D01*
X150092Y146174D01*
X150171Y146044D01*
X150246Y145912D01*
X150318Y145778D01*
X150387Y145642D01*
X150452Y145505D01*
X150514Y145366D01*
X150572Y145226D01*
X150627Y145084D01*
X150677Y144941D01*
X150725Y144796D01*
X150769Y144651D01*
X150808Y144504D01*
X150845Y144356D01*
X150877Y144208D01*
X150906Y144059D01*
X150931Y143909D01*
X150952Y143758D01*
X150969Y143607D01*
X150983Y143456D01*
X150992Y143304D01*
X150998Y143152D01*
X151000Y143000D01*
X151000Y11000D02*
X150998Y10848D01*
X150992Y10696D01*
X150983Y10544D01*
X150969Y10393D01*
X150952Y10242D01*
X150931Y10091D01*
X150906Y9941D01*
X150877Y9792D01*
X150845Y9644D01*
X150808Y9496D01*
X150769Y9349D01*
X150725Y9204D01*
X150677Y9059D01*
X150627Y8916D01*
X150572Y8774D01*
X150514Y8634D01*
X150452Y8495D01*
X150387Y8358D01*
X150318Y8222D01*
X150246Y8088D01*
X150171Y7956D01*
X150092Y7826D01*
X150010Y7698D01*
X149925Y7572D01*
X149836Y7449D01*
X149745Y7327D01*
X149650Y7208D01*
X149553Y7092D01*
X149452Y6978D01*
X149349Y6866D01*
X149243Y6757D01*
X149134Y6651D01*
X149022Y6548D01*
X148908Y6447D01*
X148792Y6350D01*
X148673Y6255D01*
X148551Y6164D01*
X148428Y6075D01*
X148302Y5990D01*
X148174Y5908D01*
X148044Y5829D01*
X147912Y5754D01*
X147778Y5682D01*
X147642Y5613D01*
X147505Y5548D01*
X147366Y5486D01*
X147226Y5428D01*
X147084Y5373D01*
X146941Y5323D01*
X146796Y5275D01*
X146651Y5231D01*
X146504Y5192D01*
X146356Y5155D01*
X146208Y5123D01*
X146059Y5094D01*
X145909Y5069D01*
X145758Y5048D01*
X145607Y5031D01*
X145456Y5017D01*
X145304Y5008D01*
X145152Y5002D01*
X145000Y5000D01*
X13000Y5000D02*
X12848Y5002D01*
X12696Y5008D01*
X12544Y5017D01*
X12393Y5031D01*
X12242Y5048D01*
X12091Y5069D01*
X11941Y5094D01*
X11792Y5123D01*
X11644Y5155D01*
X11496Y5192D01*
X11349Y5231D01*
X11204Y5275D01*
X11059Y5323D01*
X10916Y5373D01*
X10774Y5428D01*
X10634Y5486D01*
X10495Y5548D01*
X10358Y5613D01*
X10222Y5682D01*
X10088Y5754D01*
X9956Y5829D01*
X9826Y5908D01*
X9698Y5990D01*
X9572Y6075D01*
X9449Y6164D01*
X9327Y6255D01*
X9208Y6350D01*
X9092Y6447D01*
X8978Y6548D01*
X8866Y6651D01*
X8757Y6757D01*
X8651Y6866D01*
X8548Y6978D01*
X8447Y7092D01*
X8350Y7208D01*
X8255Y7327D01*
X8164Y7449D01*
X8075Y7572D01*
X7990Y7698D01*
X7908Y7826D01*
X7829Y7956D01*
X7754Y8088D01*
X7682Y8222D01*
X7613Y8358D01*
X7548Y8495D01*
X7486Y8634D01*
X7428Y8774D01*
X7373Y8916D01*
X7323Y9059D01*
X7275Y9204D01*
X7231Y9349D01*
X7192Y9496D01*
X7155Y9644D01*
X7123Y9792D01*
X7094Y9941D01*
X7069Y10091D01*
X7048Y10242D01*
X7031Y10393D01*
X7017Y10544D01*
X7008Y10696D01*
X7002Y10848D01*
X7000Y11000D01*
D13*
X7203Y166408D02*
X7302Y166410D01*
X7402Y166416D01*
X7501Y166425D01*
X7599Y166438D01*
X7697Y166455D01*
X7795Y166476D01*
X7891Y166501D01*
X7986Y166529D01*
X8080Y166561D01*
X8173Y166596D01*
X8265Y166635D01*
X8355Y166678D01*
X8443Y166723D01*
X8530Y166773D01*
X8614Y166825D01*
X8697Y166881D01*
X8777Y166939D01*
X8855Y167001D01*
X8930Y167066D01*
X9003Y167134D01*
X9073Y167204D01*
X9141Y167277D01*
X9206Y167352D01*
X9268Y167430D01*
X9326Y167510D01*
X9382Y167593D01*
X9434Y167677D01*
X9484Y167764D01*
X9529Y167852D01*
X9572Y167942D01*
X9611Y168034D01*
X9646Y168127D01*
X9678Y168221D01*
X9706Y168316D01*
X9731Y168412D01*
X9752Y168510D01*
X9769Y168608D01*
X9782Y168706D01*
X9791Y168805D01*
X9797Y168905D01*
X9799Y169004D01*
X7203Y166408D02*
X7059Y166410D01*
X6914Y166416D01*
X6770Y166425D01*
X6627Y166438D01*
X6483Y166455D01*
X6340Y166476D01*
X6198Y166501D01*
X6057Y166529D01*
X5916Y166561D01*
X5776Y166597D01*
X5637Y166636D01*
X5499Y166679D01*
X5363Y166726D01*
X5227Y166776D01*
X5093Y166830D01*
X4961Y166887D01*
X4830Y166948D01*
X4701Y167012D01*
X4573Y167080D01*
X4447Y167150D01*
X4323Y167225D01*
X4202Y167302D01*
X4082Y167383D01*
X3964Y167466D01*
X3849Y167553D01*
X3736Y167643D01*
X3625Y167736D01*
X3517Y167831D01*
X3411Y167930D01*
X3308Y168031D01*
X3633Y175496D02*
X3635Y175595D01*
X3641Y175695D01*
X3650Y175794D01*
X3663Y175892D01*
X3680Y175990D01*
X3701Y176088D01*
X3726Y176184D01*
X3754Y176279D01*
X3786Y176373D01*
X3821Y176466D01*
X3860Y176558D01*
X3903Y176648D01*
X3948Y176736D01*
X3998Y176823D01*
X4050Y176907D01*
X4106Y176990D01*
X4164Y177070D01*
X4226Y177148D01*
X4291Y177223D01*
X4359Y177296D01*
X4429Y177366D01*
X4502Y177434D01*
X4577Y177499D01*
X4655Y177561D01*
X4735Y177619D01*
X4818Y177675D01*
X4902Y177727D01*
X4989Y177777D01*
X5077Y177822D01*
X5167Y177865D01*
X5259Y177904D01*
X5352Y177939D01*
X5446Y177971D01*
X5541Y177999D01*
X5638Y178024D01*
X5735Y178045D01*
X5833Y178062D01*
X5931Y178075D01*
X6030Y178084D01*
X6130Y178090D01*
X6229Y178092D01*
X6365Y178090D01*
X6501Y178084D01*
X6637Y178075D01*
X6773Y178062D01*
X6908Y178044D01*
X7042Y178024D01*
X7176Y177999D01*
X7310Y177971D01*
X7442Y177938D01*
X7573Y177903D01*
X7704Y177863D01*
X7833Y177820D01*
X7961Y177774D01*
X8087Y177723D01*
X8213Y177670D01*
X8336Y177612D01*
X8458Y177552D01*
X8578Y177488D01*
X8697Y177420D01*
X8813Y177350D01*
X8927Y177276D01*
X9040Y177199D01*
X9150Y177118D01*
X4931Y173224D02*
X4845Y173277D01*
X4761Y173334D01*
X4679Y173393D01*
X4599Y173456D01*
X4522Y173522D01*
X4447Y173590D01*
X4375Y173662D01*
X4306Y173736D01*
X4240Y173813D01*
X4177Y173892D01*
X4117Y173974D01*
X4060Y174058D01*
X4006Y174144D01*
X3956Y174232D01*
X3909Y174322D01*
X3865Y174413D01*
X3826Y174507D01*
X3789Y174601D01*
X3757Y174697D01*
X3728Y174795D01*
X3703Y174893D01*
X3682Y174992D01*
X3664Y175092D01*
X3651Y175192D01*
X3641Y175293D01*
X3635Y175395D01*
X3633Y175496D01*
X8501Y171276D02*
X8587Y171223D01*
X8671Y171166D01*
X8753Y171107D01*
X8833Y171044D01*
X8910Y170978D01*
X8985Y170910D01*
X9057Y170838D01*
X9126Y170764D01*
X9192Y170687D01*
X9255Y170608D01*
X9315Y170526D01*
X9372Y170442D01*
X9426Y170356D01*
X9476Y170268D01*
X9523Y170178D01*
X9567Y170087D01*
X9606Y169993D01*
X9643Y169899D01*
X9675Y169803D01*
X9704Y169705D01*
X9729Y169607D01*
X9750Y169508D01*
X9768Y169408D01*
X9781Y169308D01*
X9791Y169207D01*
X9797Y169105D01*
X9799Y169004D01*
X8501Y171276D02*
X4931Y173224D01*
X14357Y175496D02*
X17603Y178092D01*
X17603Y166408D01*
X20848Y166408D02*
X14357Y166408D01*
M02*
